<svg width="16" height="12" viewBox="0 0 16 12" fill="none" xmlns="http://www.w3.org/2000/svg">
<path d="M15.5702 1.84782C15.4833 1.50429 15.3128 1.19101 15.0758 0.939329C14.8388 0.687651 14.5436 0.506406 14.2198 0.413732C13.0279 0.0737458 8.25022 0.0737457 8.25022 0.0737457C8.25022 0.0737457 3.4725 0.0737457 2.28063 0.411923C1.95669 0.504297 1.66138 0.685441 1.42433 0.937165C1.18729 1.18889 1.01687 1.50233 0.930183 1.84601C0.611328 3.11192 0.611328 5.75224 0.611328 5.75224C0.611328 5.75224 0.611328 8.39256 0.930183 9.65665C1.10581 10.3547 1.62416 10.9045 2.28063 11.0907C3.4725 11.4307 8.25022 11.4307 8.25022 11.4307C8.25022 11.4307 13.0279 11.4307 14.2198 11.0907C14.878 10.9045 15.3946 10.3547 15.5702 9.65665C15.8891 8.39256 15.8891 5.75224 15.8891 5.75224C15.8891 5.75224 15.8891 3.11192 15.5702 1.84782ZM6.73267 8.17554V3.32893L10.6885 5.73415L6.73267 8.17554Z" fill="#AAAAAA"/>
</svg>
